# xmcd
#
# Track frame offsets:
#	150
#	12496
#	29138
#	41663
#	55895
#	69190
#	87715
#	100180
#	114715
#	128741
#	144223
#	155028
#	169337
#	184859
#	199097
#	213846
#
# Disc length: 3012 seconds
#
# Revision: 2
# Processed by: cddbd v1.5.1PL0 Copyright (c) Steve Scherf et al.
# Submitted via: audiograbber 1.83.01
#
DISCID=e90bc210
DTITLE=Country Music Hall Of Fame No.2 - Various Artists
DYEAR=1900
DGENRE=Karaoke Country
TTITLE0=Johnny Paycheck - Take This Job And Shove It
TTITLE1=Waylon Jennings - Honky Tonk Heroes
TTITLE2=Willie Nelson - Mamas Don't Let Your Babies Grow Up To Be Cowboys
TTITLE3=George Jones - He Stopped Loving Her Today
TTITLE4=Johnny Cash - Any Old Wind That Blows
TTITLE5=Ray Price - For The Good Times
TTITLE6=Merle Haggard - Today I Started Loving You Again
TTITLE7=Charlie Rich - Behind Closed Doors
TTITLE8=Tammy Wynette - D-I-V-O-R-C-E
TTITLE9=Donna Fargo - Funny Face
TTITLE10=Anne Murray - Snowbird
TTITLE11=Dolly Parton - Here You Come Again
TTITLE12=Tanya Tucker - Delta Dawn
TTITLE13=Lynn Anderson - Rose Garden
TTITLE14=Lorette Lynn - Coal Miner's Daughter
TTITLE15=Crystal Gayle - Don't It Make My Brown Eyes Blue
EXTD=
EXTT0=
EXTT1=
EXTT2=
EXTT3=
EXTT4=
EXTT5=
EXTT6=
EXTT7=
EXTT8=
EXTT9=
EXTT10=
EXTT11=
EXTT12=
EXTT13=
EXTT14=
EXTT15=
PLAYORDER=
